<svg height='300px' width='300px'  fill="#000000" xmlns="http://www.w3.org/2000/svg" data-name="Layer 1" viewBox="0 0 100 100" x="0px" y="0px"><title>Noun_Project_100Icon_10px_grid_taeng_2_final</title><path d="M68,15H32a4.5,4.5,0,0,0-4.5,4.5v61A4.5,4.5,0,0,0,32,85H68a4.5,4.5,0,0,0,4.5-4.5v-61A4.5,4.5,0,0,0,68,15Zm3,65.5a3,3,0,0,1-3,3H32a3,3,0,0,1-3-3v-61a3,3,0,0,1,3-3H68a3,3,0,0,1,3,3v61Z"></path><path d="M68,17.25H32a2.25246,2.25246,0,0,0-2.25,2.25v61A2.25246,2.25246,0,0,0,32,82.75H68a2.25246,2.25246,0,0,0,2.25-2.25v-61A2.25246,2.25246,0,0,0,68,17.25Zm-5.456.5h0.24c0.37079,1.24359.41156,2.46008-1.0423,3.26074a2.21976,2.21976,0,0,1-.55371-1.873A2.38579,2.38579,0,0,1,62.544,17.75Zm-24.09442,0H61.61945a2.43038,2.43038,0,0,0-.91486,1.26074,2.74054,2.74054,0,0,0,.6958,2.36292c-0.348,1.21466-.65405,2.47632-0.92389,3.77063a19.98929,19.98929,0,0,0-1.1427-2.15112,3.02336,3.02336,0,0,0-.39679-2.48437,3.48769,3.48769,0,0,0-2.72559-1.085,0.24978,0.24978,0,0,0-.25781.292c0.186,1.08447.61572,3.5874,2.9458,3.5874l0.0368-.001a20.42413,20.42413,0,0,1,1.138,2.15973l0.23413,0.49042c-0.24017,1.24194-.4397,2.51727-0.60571,3.81329a3.88265,3.88265,0,0,0-.87628-0.799,2.44482,2.44482,0,0,0-.008-1.80792,2.84828,2.84828,0,0,0-1.89746-1.144c-0.03247-.00995-0.06525-0.0213-0.09784-0.03131,0.03485-.86633.06934-1.733,0.08954-2.61908a0.25131,0.25131,0,0,0-.07178-0.18115,0.32528,0.32528,0,0,0-.1792-0.07471l-11.79834.04883a0.25007,0.25007,0,0,0-.249.25244c0.0188,1.78046-.02393,3.53723-0.1134,5.277-0.1673.16687-.33954,0.3291-0.51111,0.48615-0.99054.90649-2.00092,1.84973-1.08984,3.73035a6.97754,6.97754,0,0,0-.52509,1.44537c-0.01019.04126-.02289,0.07959-0.03253,0.12164q-1.04947-1.64108-1.99457-3.29419c0.02563-.19128.05469-0.37744,0.0929-0.551a4.11649,4.11649,0,0,1,.60162-1.45605,2.11837,2.11837,0,0,0,1.63794-.9859,4.8686,4.8686,0,0,0,.15576-4.27295,0.24988,0.24988,0,0,0-.20459-0.15527,0.25583,0.25583,0,0,0-.2334.10693,11.58445,11.58445,0,0,1-.79932.98975c-1.00848,1.164-2.14105,2.47943-1.0061,4.09692a4.29485,4.29485,0,0,0-.48828,1.029c-0.05353.16425-.105,0.33075-0.14551,0.5108q-0.94061-1.69006-1.77295-3.4024c0.037-.17432.09668-0.34491,0.1474-0.51788a6.96857,6.96857,0,0,1,.57178-1.4173,1.97809,1.97809,0,0,0,1.61212-.93536,4.47256,4.47256,0,0,0-.25342-4.05566,0.25171,0.25171,0,0,0-.20654-0.13916,0.23959,0.23959,0,0,0-.22412.10791c-0.20654.30078-.45947,0.60547-0.70361,0.90039-0.94019,1.132-1.99445,2.41174-.686,3.93268a7.275,7.275,0,0,0-.4447.96259c-0.05933.16125-.0921,0.329-0.14075,0.49408q-0.9884-2.08173-1.83105-4.20874c0.004-.01868.0097-0.03595,0.01385-0.05457a4.58241,4.58241,0,0,1,.86066-1.93909,2.43407,2.43407,0,0,0,1.49164-1.42865A2.3272,2.3272,0,0,0,38.44958,17.75ZM58.8667,22.80322c-1.541-.01807-2.0708-1.34326-2.36328-2.85889a2.79577,2.79577,0,0,1,2.03857.87109A2.48233,2.48233,0,0,1,58.8667,22.80322ZM45.2915,66.68506l-12.377-.29834A76.5804,76.5804,0,0,0,45.1167,23.65625l11.29-.04687C55.957,42.03223,52.31982,56.126,45.2915,66.68506Zm5.64124-2.35937c0.71832,1.2041,1.42236,2.43732,2.03259,3.5553a65.21847,65.21847,0,0,0-6.76526-1.69922q1.187-1.8544,2.24255-3.84741A2.60323,2.60323,0,0,0,50.93274,64.32568ZM43.34241,33.1369a2.48635,2.48635,0,0,0,.826-0.21173q-0.19006,1.81641-.46423,3.60443c-0.29218-.42786-0.58252-0.8559-0.86359-1.28442-0.035-.05341-0.07269-0.10657-0.10754-0.16l0.00659-.03436A6.8442,6.8442,0,0,1,43.34241,33.1369ZM44.32715,29.542c0.04608-.04224.09167-0.089,0.13806-0.13171q-0.08817,1.46457-.22906,2.91028a1.88246,1.88246,0,0,1-.91339.32983C42.59766,31.125,43.36426,30.42285,44.32715,29.542Zm13.71191,3.88916c0.0636,0,.13049-0.00439.19684-0.00806a3.32157,3.32157,0,0,1,1.0307,1.14q-0.09512,1.77676-.0957,3.58313a9.5981,9.5981,0,0,0-.68823-0.77185c0.3537-2.28522-1.02637-2.77118-2.25031-3.08856,0.05-.47913.09943-0.95941,0.14417-1.44537A2.43113,2.43113,0,0,0,58.03906,33.43115ZM56.4314,32.18408c0.04541-.52325.09247-1.04431,0.13177-1.57538,1.11426,0.29846,1.88568.62207,1.54034,2.322-0.02148.00049-.04248,0.00049-0.063,0.00049A1.95022,1.95022,0,0,1,56.4314,32.18408Zm-0.81952,7.01514c0.12054-.80042.2356-1.60791,0.33972-2.429a2.42317,2.42317,0,0,0,2.00446.95679c0.05359,0,.11029-0.00415.16577-0.00677a7.98948,7.98948,0,0,1,1.05707,1.29291c0.02368,1.90186.12567,3.81635,0.31421,5.72693-0.443-.644-0.90436-1.27277-1.39594-1.86719C58.34857,40.65558,56.98969,39.7464,55.61188,39.19922Zm2.00482,3.502a3.35626,3.35626,0,0,1-2.38544-1.19434c0.10443-.59644.21228-1.18872,0.30707-1.79712C56.73962,40.20172,57.76929,40.94928,57.6167,42.70117Zm-1.5766-6.68036c0.04883-.4068.09174-0.821,0.1366-1.23291,1.11157,0.29236,2.08319.67261,1.83258,2.43866A2.02159,2.02159,0,0,1,56.0401,36.02081Zm-0.90991,6.07739a3.70456,3.70456,0,0,0,2.571,1.10443l0.01923-.00037a26.09723,26.09723,0,0,1,1.88892,2.599,61.21347,61.21347,0,0,0,1.16022,6.767c-1.15479-.96051-2.57227-2.12134-3.8429-3.01935,0.02136-2.23022-1.36816-2.70331-2.75623-2.87561C54.52283,45.18774,54.84546,43.66614,55.13019,42.09821Zm4.18738-8.33807a3.392,3.392,0,0,0-.7406-0.70544c0.44934-2.20117-.73877-2.62726-1.97327-2.95251,0.03229-.46075.05371-0.93585,0.08148-1.40247a2.48013,2.48013,0,0,0,1.76062.62354l0.019-.00018a3.30682,3.30682,0,0,1,1.14569,1.19208Q59.42462,32.1174,59.31757,33.76013ZM56.72711,27.9787c0.02667-.49121.0564-0.97845,0.07819-1.4762a2.44648,2.44648,0,0,1,1.56921.88666,1.96228,1.96228,0,0,1-.01855,1.43311A1.9106,1.9106,0,0,1,56.72711,27.9787ZM41.97656,25.1792c0.18457-.21289.373-0.43018,0.54688-0.64941a4.25575,4.25575,0,0,1-.26074,3.37842,1.61994,1.61994,0,0,1-1.252.77393C40.07764,27.37012,41.00049,26.30518,41.97656,25.1792Zm-3.1333-.5127c-1.07275-1.21826-.26318-2.19336.67041-3.31836,0.15869-.19092.3208-0.38623,0.47363-0.584a3.80191,3.80191,0,0,1,.10254,3.19189A1.48794,1.48794,0,0,1,38.84326,24.6665ZM36.6424,17.75h1.31384a1.86272,1.86272,0,0,1-.03827.88086,1.88515,1.88515,0,0,1-1.08154,1.07324A2.20033,2.20033,0,0,1,36.6424,17.75Zm-1.14264,0h0.61017a2.73127,2.73127,0,0,0,.33447,2.24628,4.56589,4.56589,0,0,0-.7196,1.41028c-0.16852-.44238-0.3396-0.88379-0.49915-1.33A2.83378,2.83378,0,0,0,35.49976,17.75Zm-2.05811,0h1.52112a2.25474,2.25474,0,0,1-.12048,1.9917,2.26527,2.26527,0,0,1-1.35156-1.33447A1.78932,1.78932,0,0,1,33.44165,17.75Zm1.65564,3.4068a6.99832,6.99832,0,0,0-.78265-0.38232,3.859,3.859,0,0,0-.08069-0.79144,4.6514,4.6514,0,0,0,.51965.25793C34.8634,20.54822,34.98322,20.85138,35.09729,21.1568Zm-1.27551-.41071a2.13046,2.13046,0,0,1-1.623-.10107,2.1654,2.1654,0,0,1-.89941-1.32861,4.6511,4.6511,0,0,0,.69385-0.04834,1.8939,1.8939,0,0,1,1.44727.18359A1.7812,1.7812,0,0,1,33.82178,20.74609ZM30.25,19.5A1.75212,1.75212,0,0,1,32,17.75h0.94312a2.26763,2.26763,0,0,0,.0686.80078,2.13442,2.13442,0,0,0,.10254.22479,3.92177,3.92177,0,0,0-1.17432-.00458,2.99243,2.99243,0,0,1-.91846.01611,0.25023,0.25023,0,0,0-.30029.2998,2.88444,2.88444,0,0,0,1.22607,1.99023,2.1484,2.1484,0,0,0,1.1001.27539,3.80451,3.80451,0,0,0,.99658-0.1535,6.386,6.386,0,0,1,1.34363.7312q0.82114,2.121,1.78558,4.19128a6.11991,6.11991,0,0,0-1.197-.44391,2.6541,2.6541,0,0,0-.99231-1.78455c-0.99854-.70215-2.46973-0.40186-3.65137-0.15967l-0.40039.08057a0.25,0.25,0,0,0-.16846.37207,3.6563,3.6563,0,0,0,3.41992,2.13672,7.551,7.551,0,0,0,1.56976-.18927,5.099,5.099,0,0,1,1.79449.79291c0.0498,0.10364.10388,0.20624,0.1543,0.30975a0.22241,0.22241,0,0,0,.01831.0368q0.63593,1.305,1.33447,2.59546a6.69673,6.69673,0,0,0-1.29626-.4953,2.522,2.522,0,0,0-.89148-1.78619c-0.90771-.67187-2.24121-0.41113-3.53125-0.15918-0.37354.07324-.74121,0.14551-1.08594,0.19043a0.25,0.25,0,0,0-.10986.45361,9.06952,9.06952,0,0,1,.93652.77832,3.82921,3.82921,0,0,0,2.72363,1.3252,5.28331,5.28331,0,0,0,1.74445-.34393,5.97914,5.97914,0,0,1,1.969.88525q0.1821,0.3273.36853,0.654a0.20477,0.20477,0,0,0,.01422.02435c0.52057,0.91315,1.0694,1.8222,1.63763,2.72906a9.28815,9.28815,0,0,0-1.3869-.28668,2.40354,2.40354,0,0,0-.85132-1.684c-0.87207-.64648-2.14746-0.39648-3.37988-0.15479-0.35693.06982-.70752,0.13867-1.03711,0.18164a0.24989,0.24989,0,0,0-.10986.45361,8.67821,8.67821,0,0,1,.89307.74268,3.6669,3.6669,0,0,0,2.60889,1.27,5.09156,5.09156,0,0,0,1.67578-.33374,7.24426,7.24426,0,0,1,2.01727.49561c0.10181,0.15887.19763,0.31836,0.301,0.47711l0.00073,0.00122q0.64462,0.99023,1.32892,1.97668a74.2909,74.2909,0,0,1-5.72412,18.9223c-0.2464-.34564-0.48663-0.68958-0.72455-1.03406a16.3402,16.3402,0,0,1,.53784-2.98291,2.38319,2.38319,0,0,0,1.58228-1.09351c0.52588-.9585.22705-2.30566-0.3833-4.03369a0.25021,0.25021,0,0,0-.19873-0.16357,0.24712,0.24712,0,0,0-.23779.09814c-0.17383.23389-.35254,0.46191-0.52832,0.686-1.07819,1.37268-2.18463,2.7915-.717,4.37646a16.6363,16.6363,0,0,0-.49,2.4823c-0.19788-.29224-0.38684-0.58051-0.57733-0.86975-0.8252-1.25323-1.57611-2.46936-2.2243-3.6059L33.91,50.02478a5.5063,5.5063,0,0,1,.30585-1.89026c0.05157,0.00317.1059,0.011,0.1557,0.011a1.63706,1.63706,0,0,0,1.2959-.55371c0.99121-1.13623.46436-3.54346,0.19141-4.52588a0.24953,0.24953,0,0,0-.186-0.17725,0.247,0.247,0,0,0-.24414.08105c-0.23437.27246-.49316,0.54-0.75,0.80518-0.813.83984-1.65381,1.7085-1.63232,2.69287a2.17575,2.17575,0,0,0,.71332,1.46173,5.1202,5.1202,0,0,0-.30365,1.30835c-0.44293-.812-0.82489-1.57141-1.13336-2.25885a3.32425,3.32425,0,0,0-.206-2.70459A4.09278,4.09278,0,0,0,30.25,42.67279V19.5Zm5.22754,6.18262c-2.25586.44824-3.27295-.17871-4.09717-1.44873l0.05225-.01025c1.14307-.23389,2.43994-0.50049,3.26367.07861A2.08677,2.08677,0,0,1,35.47754,25.68262Zm1.78955,3.71826a3.22308,3.22308,0,0,1-3.854-.92041c-0.167-.15234-0.33789-0.30762-0.51855-0.459,0.17676-.03223.35645-0.06738,0.5376-0.103,1.18262-.231,2.40723-0.47119,3.13721.07031A2.01731,2.01731,0,0,1,37.26709,29.40088Zm2.39209,4.4873a3.03483,3.03483,0,0,1-3.66016-.88086c-0.1543-.14062-0.31153-0.28418-0.47754-0.42383,0.16113-.02979.3252-0.06152,0.49023-0.09424,1.127-.22119,2.2915-0.44873,2.98633.06543A1.91132,1.91132,0,0,1,39.65918,33.88818Zm-2.103,17.80615c-1.11816-1.207-.46924-2.165.75488-3.72363q0.12524-.15894.25146-0.32178c0.46192,1.38721.66065,2.46484,0.26563,3.186A1.90772,1.90772,0,0,1,37.55615,51.69434ZM33.5459,46.457c-0.0166-.77588.71631-1.53271,1.49219-2.33447,0.15234-.15771.30566-0.31592,0.45459-0.47607,0.39844,1.67529.32861,3.00879-.20166,3.6167a1.229,1.229,0,0,1-1.13135.37109A1.74079,1.74079,0,0,1,33.5459,46.457Zm-3.2959-3.238a3.47975,3.47975,0,0,1,1.43213,1.30243,2.76561,2.76561,0,0,1,.20459,2.20264A2.41857,2.41857,0,0,1,30.25,45.84991V43.21906Zm0,3.34521a3.51734,3.51734,0,0,0,1.63538.65942c0.29266,0.6488.64465,1.356,1.05444,2.11316-0.25214-.08411-0.47125-0.14838-0.67548-0.20337A1.704,1.704,0,0,0,30.25,47.62634V46.56427Zm0,1.563a1.20942,1.20942,0,0,1,1.52881,1.06268,1.98912,1.98912,0,0,1-1.52881.114V48.12726Zm0,1.68884a2.14312,2.14312,0,0,0,.57031.09015,3.09674,3.09674,0,0,0,1.24927-.30768,11.27358,11.27358,0,0,1,1.24316.40436q0.59958,1.06723,1.31268,2.21973a4.27812,4.27812,0,0,0-.89551-0.171c-0.49835-1.77161-1.80206-1.56152-3.07513-1.33435-0.1333.0235-.26953,0.04382-0.40479,0.06586v-0.967Zm0,1.46637c0.164-.02582.33179-0.04462,0.49219-0.073,1.395-.24707,2.16455-0.31885,2.51807.96924a2.421,2.421,0,0,1-1.77686.355,2.75542,2.75542,0,0,1-1.2334-.61951V51.28247Zm0,1.25079a3.15238,3.15238,0,0,0,1.13818.49115,2.88179,2.88179,0,0,0,.54688.05273,2.956,2.956,0,0,0,1.6709-.53522,4.04241,4.04241,0,0,1,1.46.3811c0.498,0.78265,1.028,1.58136,1.58319,2.38855-0.51282-.14-1.022-0.26031-1.50879-0.34253-1.34143-1.81775-2.99249-1.08313-4.32294-.48615-0.19452.08728-.3797,0.15991-0.56738,0.23694V52.53326Zm4.43066,2.65033a2.77573,2.77573,0,0,1-2.05908.83789H32.59814a3.1713,3.1713,0,0,1-2.15918-.82812c0.19092-.07861.38574-0.166,0.583-0.25439C32.34375,54.34766,33.59326,53.78857,34.68066,55.18359ZM60.8125,82.25c0.0304-.17944.05311-0.347,0.07044-0.49774,0.42438,0.15887.8446,0.32678,1.25391,0.49774H60.8125ZM69.75,77.38507V80.5A1.75212,1.75212,0,0,1,68,82.25H64.12048q-0.15591-.36511-0.3208-0.73083a8.92653,8.92653,0,0,0,.57123-2.899,2.42649,2.42649,0,0,0,1.24774-2.04346,3.03188,3.03188,0,0,0-.21826-1.18951A3.16842,3.16842,0,0,0,64.15967,73.856a0.25194,0.25194,0,0,0-.32861.05908c-0.14374.18427-.28186,0.37195-0.41418,0.561a3.41578,3.41578,0,0,0-.81726,2.47168,2.62611,2.62611,0,0,0,1.267,1.66614,7.69811,7.69811,0,0,1-.37378,2.24866c-0.5705-1.19934-1.21027-2.38861-1.90057-3.53076-0.62885-1.04053-1.29492-2.04138-1.98584-2.96631a3.98607,3.98607,0,0,0-.267-1.76233c-0.56024-1.2998-1.87134-1.59973-2.90527-1.83215a6.35737,6.35737,0,0,1-1.07861-.30518,0.26123,0.26123,0,0,0-.34912.25244c0.0918,0.96436.64307,3.99463,3.90918,3.99463,0.1015,0,.209-0.00708.31561-0.01306,0.42285,0.5675.83551,1.16473,1.23712,1.78064,0.07983,0.12244.16058,0.24274,0.23938,0.3667l-0.05072-.02161a15.4398,15.4398,0,0,0-3.84076-1.1676,2.4971,2.4971,0,0,0-1.802-1.68384,3.65848,3.65848,0,0,0-3.30566,1.00635,0.24965,0.24965,0,0,0-.02686.30908,3.64683,3.64683,0,0,0,2.42041,1.61816,3.00782,3.00782,0,0,0,.45752.03516,3.50411,3.50411,0,0,0,2.1369-.79694,15.85964,15.85964,0,0,1,4.36023,1.41083c0.042,0.01941.07745,0.0332,0.12012,0.05316a39.70311,39.70311,0,0,1,2.20361,4.19733c0.06641,0.14771.13019,0.29517,0.19427,0.44275H63.37659a30.7638,30.7638,0,0,0-5.12775-1.8526c-0.38446-2.16162-3.0094-2.20453-5.45343-2.06244a0.25008,0.25008,0,0,0-.21729.34424,4.432,4.432,0,0,0,2.53125,2.46924,3.47091,3.47091,0,0,0,1.147.19629,3.84684,3.84684,0,0,0,1.80554-.47821,16.104,16.104,0,0,1,1.55286.4408,4.06456,4.06456,0,0,0-2.20746.94269H32a1.75212,1.75212,0,0,1-1.75-1.75V55.67645a3.70608,3.70608,0,0,0,2.34473.845h0.02686a3.24673,3.24673,0,0,0,2.4577-1.05536,15.8186,15.8186,0,0,1,2.01263.48779c0.176,0.251.35718,0.50146,0.53735,0.75256a82.41317,82.41317,0,0,1-5.37341,9.78473,0.25008,0.25008,0,0,0,.20459.38477L45.417,67.18848h0.00586a0.24935,0.24935,0,0,0,.20752-0.11084c0.09766-.14581.18768-0.29956,0.28406-0.44672,0.27411,0.05341.537,0.12091,0.80878,0.17725a64.14523,64.14523,0,0,1,6.38794,1.64667c-0.40857.19513-.856,0.42645-1.32129,0.6806-1.04272.56958-2.17,1.25476-3.15009,1.92267-2.3714-1.34088-3.49286.13831-4.316,1.228a5.85685,5.85685,0,0,1-.689.81494,0.25,0.25,0,0,0,.07178.418,4.19808,4.19808,0,0,0,1.53613.25439,5.00263,5.00263,0,0,0,2.70459-.72314,1.99466,1.99466,0,0,0,.939-1.55542,38.159,38.159,0,0,1,3.47363-2.0976c0.52081-.27667,1.00964-0.518,1.43506-0.70453a56.61779,56.61779,0,0,1,5.99292,2.34668,0.23566,0.23566,0,0,0,.03827.0191A53.81,53.81,0,0,1,69.75,77.0578v0.32727ZM56.34912,75.7915a2.82934,2.82934,0,0,1-2.17139.62207,3.11043,3.11043,0,0,1-1.96094-1.23145,3.13094,3.13094,0,0,1,2.68164-.72168A1.98437,1.98437,0,0,1,56.34912,75.7915ZM69.75,76.42523c-0.51483-.38531-1.03754-0.75732-1.56317-1.12286a19.95817,19.95817,0,0,0-2.61774-7.47955c0.50714-2.28149-.9928-3.24469-2.21118-4.0152a7.46007,7.46007,0,0,1-1.03516-.73486,0.24672,0.24672,0,0,0-.25488-0.05127,0.25032,0.25032,0,0,0-.1626.20313A5.21262,5.21262,0,0,0,62.95752,67.457a2.509,2.509,0,0,0,1.81592.71094,3.71207,3.71207,0,0,0,.39874-0.03253c0.22113,0.36261.42932,0.74512,0.62805,1.13977a19.78229,19.78229,0,0,1,1.63116,4.65662q0.10666,0.49265.18689,0.98572a54.16409,54.16409,0,0,0-7.50732-4.276c-0.9928-2.02832-1.97168-3.99133-3.004-5.73907,0.59851-2.20959-.85468-3.17688-2.03619-3.95129a7.07967,7.07967,0,0,1-.99756-0.7334,0.24981,0.24981,0,0,0-.41895.13721,4.95752,4.95752,0,0,0,.84326,4.11621,2.48608,2.48608,0,0,0,1.873.75732c0.1076,0,.2215-0.01282.33411-0.02289,0.92059,1.56439,1.80255,3.308,2.69061,5.11487a57.29379,57.29379,0,0,0-5.48523-2.11731,0.21711,0.21711,0,0,0-.05328-0.01849c-0.06519-.02142-0.12817-0.04614-0.19354-0.06738-0.66241-1.23273-1.46948-2.65283-2.28931-4.028,1.2113-2.09363-.26758-3.34119-1.65845-4.32971A66.11422,66.11422,0,0,0,53.46057,49.4447a4.35347,4.35347,0,0,0,.48035.2887,3.61,3.61,0,0,0,1.63672.40918,3.14271,3.14271,0,0,0,1.05194-.19147c1.4234,1.00519,3.06836,2.37335,4.27814,3.38141l0.05585,0.04669a51.34072,51.34072,0,0,0,2.37982,7.32434,30.38218,30.38218,0,0,0-2.82947-1.66772c-0.19977-2.62781-2.16565-2.63593-3.75464-2.63739A5.37315,5.37315,0,0,1,55.13574,56.25a0.25453,0.25453,0,0,0-.2583.05762,0.249,0.249,0,0,0-.06152.25781,4.99266,4.99266,0,0,0,2.73926,2.91309,3.67442,3.67442,0,0,0,1.39014.28271,3.16245,3.16245,0,0,0,1.31207-.2951,27.60232,27.60232,0,0,1,3.46136,2.10614c0.05469,0.12482.10657,0.25153,0.16229,0.37567a0.22085,0.22085,0,0,0,.04779.11053A37.61182,37.61182,0,0,0,69.75,71.276v5.14923Zm0-13.75818V70.52a37.46871,37.46871,0,0,1-5.36755-8.65881,12.86017,12.86017,0,0,1,1.81073-3.89459,3.74368,3.74368,0,0,0,2.42938-1.06915,4.37811,4.37811,0,0,0,.83838-2.90771c0.00586-.14941.01172-0.2959,0.01953-0.43848a0.25009,0.25009,0,0,0-.36426-0.23633,8.7463,8.7463,0,0,1-.98145.40186l-0.12476.046c-1.42255.52209-3.08691,1.22229-2.23755,3.93408a13.84723,13.84723,0,0,0-1.69312,3.46173,50.56828,50.56828,0,0,1-2.75165-8.37762,12.53614,12.53614,0,0,1,2.90167-2.2251,5.6843,5.6843,0,0,0,1.55432.24933,3.48861,3.48861,0,0,0,1.57782-.36127,6.29325,6.29325,0,0,0,1.98224-1.78522c0.13495-.16315.2702-0.32007,0.40625-0.47589V62.66705Zm0-15.04578a0.23684,0.23684,0,0,0-.0498-0.01483c-0.31006,0-.66455-0.03223-1.04-0.06592a10.485,10.485,0,0,0-1.87616-.05194,2.90539,2.90539,0,0,0-2.817,2.64172,13.45165,13.45165,0,0,0-2.77545,2.08q-0.42471-1.87463-.72968-3.78467a16.30315,16.30315,0,0,1,2.66577-3.26428c0.02936,0.00079.059,0.00275,0.0882,0.00275a3.21854,3.21854,0,0,0,2.4248-1.10742,3.9549,3.9549,0,0,0,.37469-0.502,5.08744,5.08744,0,0,0,.67853-3.55957,0.25025,0.25025,0,0,0-.37256-0.17334c-0.28809.16772-.60626,0.32135-0.9411,0.48285l-0.02863.01471c-1.55688.75183-3.48077,1.68915-2.60516,4.51617a17.5545,17.5545,0,0,0-2.39215,2.85126q-0.13953-.95023-0.24994-1.90448c0.001-.00433-0.00226-0.00848-0.00153-0.01288q-0.19885-1.72018-.30536-3.44525a10.91883,10.91883,0,0,1,1.91687-1.81091,2.47938,2.47938,0,0,0,.86774.17133,2.59636,2.59636,0,0,0,1.33691-.3833A3.796,3.796,0,0,0,65.139,39.07062a5.02671,5.02671,0,0,0,.76917-2.31525,0.25043,0.25043,0,0,0-.11377-0.22852,0.24665,0.24665,0,0,0-.25488-0.00977c-0.26.14117-.54053,0.26617-0.82391,0.38672-0.1615.06866-.32361,0.13733-0.48419,0.20313-1.42651.58276-2.88776,1.19519-2.81665,3.00665a11.47249,11.47249,0,0,0-1.65985,1.52386c-0.04431-.85913-0.06927-1.71643-0.08038-2.57184a0.23591,0.23591,0,0,0-.00159-0.187c-0.001-.09662-0.002-0.1933-0.00256-0.28986A8.63916,8.63916,0,0,1,61.33289,37.475a3.05378,3.05378,0,0,0,.76282.10553,2.9,2.9,0,0,0,1.5459-.45215,3.67393,3.67393,0,0,0,.94238-0.8985,4.63046,4.63046,0,0,0,.89795-2.03949,0.25121,0.25121,0,0,0-.06738-0.21631,0.247,0.247,0,0,0-.21387-0.07324l-0.269.03711c-0.24786.03375-.50891,0.07031-0.77325,0.11407-1.57178.26044-3.26233,0.8172-3.12189,3.01874a8.981,8.981,0,0,0-1.37152.89508c0.00342-1.0191.03381-2.03174,0.08289-3.03778A10.355,10.355,0,0,1,61.58972,33.432a2.74827,2.74827,0,0,0,.674.0929,2.49429,2.49429,0,0,0,1.394-.42725,3.03073,3.03073,0,0,0,.268-0.23633,4.31926,4.31926,0,0,0,1.38239-2.81885,0.25016,0.25016,0,0,0-.30273-0.27148l-0.16455.03613c-0.45746.10065-.959,0.21259-1.44006,0.36761-1.28625.41461-2.41315,1.152-2.12982,2.86829a10.20534,10.20534,0,0,0-1.48615,1.159q0.10913-1.82648.31763-3.60736a0.22711,0.22711,0,0,0,.01373-0.11176c0.01282-.10895.02686-0.21716,0.04022-0.32581a24.81585,24.81585,0,0,1,2.67078-2.26489c0.04419,0.01086.08746,0.0116,0.13147,0.02008a2.5482,2.5482,0,0,0,.46667.07111,2.35189,2.35189,0,0,0,1.30664-.3999,4.26522,4.26522,0,0,0,1.66943-3.10205,0.24957,0.24957,0,0,0-.083-0.21582,0.25248,0.25248,0,0,0-.22412-0.05615l-0.1582.03809c-1.23639.29645-2.81488,0.67535-3.32281,1.89722a2.54627,2.54627,0,0,0-.12,1.37231A23.15008,23.15008,0,0,0,60.251,29.38983q0.2319-1.71066.55078-3.35968a0.21906,0.21906,0,0,0,.00952-0.04565c0.07416-.38062.155-0.75549,0.236-1.13013a13.52172,13.52172,0,0,1,1.11963-.9939,10.21651,10.21651,0,0,1,1.07263-.74292,2.62362,2.62362,0,0,0,.99438.22766,1.95377,1.95377,0,0,0,.80469-0.1709c1.18848-.53271,1.812-2.2124,2.17725-3.4292a0.25192,0.25192,0,0,0-.07178-0.23633,0.28093,0.28093,0,0,0-.25049-0.07373c-1.87079.36456-3.79205,0.75494-3.919,3.25873a10.482,10.482,0,0,0-.91376.62372c-0.27338.20673-.54718,0.42523-0.817,0.665q0.24966-1.06961.5365-2.10046c0.03571-.12848.06879-0.25989,0.10541-0.38739A2.89544,2.89544,0,0,0,63.311,17.75H68a1.75212,1.75212,0,0,1,1.75,1.75V47.62128ZM61.90137,40.062c-0.041-1.4458,1.14893-1.93213,2.51953-2.49268,0.30908-.12646.62549-0.25537,0.93213-0.39941a3.93163,3.93163,0,0,1-1.69043,2.70215A2.00721,2.00721,0,0,1,61.90137,40.062Zm-0.374-3.04785c-0.11816-2.05859,1.64941-2.33154,3.39014-2.56982A3.70707,3.70707,0,0,1,63.377,36.70361,2.40593,2.40593,0,0,1,61.52734,37.01416Zm3.23242-6.67676a3.54509,3.54509,0,0,1-1.37842,2.34326,2.02514,2.02514,0,0,1-1.62354.28369C61.47168,31.26074,62.812,30.77588,64.75977,30.3374Zm1.08984-5.5542a3.66172,3.66172,0,0,1-1.39209,2.38232,1.83274,1.83274,0,0,1-1.47754.26611C62.72607,25.73877,63.999,25.23828,65.84961,24.7832Zm-2.38574-2.10254c0.10791-1.93945,1.416-2.333,3.14795-2.68066-0.50146,1.5166-1.085,2.40723-1.77783,2.71777A1.68221,1.68221,0,0,1,63.46387,22.68066Z"></path></svg>
