<svg height='100px' width='100px'  fill="#000000" xmlns="http://www.w3.org/2000/svg" data-name="Layer 1" viewBox="0 0 100 100" x="0px" y="0px"><title>Noun_Project_100Icon_10px_grid_taeng_1_final</title><path d="M90.2196,31.287l-23.68024-8.6189a3.14486,3.14486,0,0,0-3.43677.88263L46.84583,20.6842A3.14358,3.14358,0,0,0,43.43445,22.5H27.4a3.15,3.15,0,0,0-3.15,3.15v0.486L13.337,28.06018a3.15,3.15,0,0,0-2.55518,3.64911l7.41479,42.05127a3.15,3.15,0,0,0,3.64917,2.55518L46.663,71.93982A3.13583,3.13583,0,0,0,47.79462,71.5H52.6c0.05591,0,.10809-0.01361.16327-0.01648l8.97906,1.58325,11.71832,4.26514A3.15,3.15,0,0,0,77.498,75.44922L92.10229,35.32434A3.1499,3.1499,0,0,0,90.2196,31.287ZM66.18024,23.65472l2.338,0.851-4.05536-.71509A2.086,2.086,0,0,1,66.18024,23.65472ZM46.66345,21.71826L51.09686,22.5H48.07355l-1.50122-.26471A1.56954,1.56954,0,0,0,45.39215,22.5H44.65076A2.09131,2.09131,0,0,1,46.66345,21.71826ZM25.3,25.65a2.1,2.1,0,0,1,2.1-2.1H52.6a2.1,2.1,0,0,1,2.1,2.1v42.7a2.1,2.1,0,0,1-2.1,2.1H48.8064a3.13832,3.13832,0,0,0,.2525-0.525H52.6a1.577,1.577,0,0,0,1.575-1.575V25.65A1.57689,1.57689,0,0,0,52.6,24.075H40.27655a3.12187,3.12187,0,0,0-2.12238-.39081l-2.21637.39081H27.4a1.57689,1.57689,0,0,0-1.575,1.575v0.20825l-0.525.09253V25.65ZM69.93671,41.90472a36.00265,36.00265,0,0,0-8.58551,4.249,5.15823,5.15823,0,0,0-.49707-1.07831A30.624,30.624,0,0,1,72.282,28.60352ZM68.07526,52.46149c-3.24524,1.396-6.21747,3.885-9.21179,7.70935C61.372,53.11725,65.266,47.5448,69.418,44.84619ZM67.077,58.12286a13.20445,13.20445,0,0,0-4.50232,3.13831,16.64253,16.64253,0,0,1,5.18195-6.99274ZM65.09045,69.38934l-0.18286,1.037a1.22143,1.22143,0,0,1-.83136.94727A7.91114,7.91114,0,0,1,65.09045,69.38934Zm-4.47559,1.52393-0.8927-.15741a23.14915,23.14915,0,0,1,6.99-10.56366L65.931,64.62244A16.71766,16.71766,0,0,0,60.61487,70.91327ZM56.38452,42.30481c-0.202-.03833-0.42444-0.04993-0.63452-0.07776V37.12738c0.09753,0.35724.21338,0.70551,0.33191,1.04791A6.01694,6.01694,0,0,1,56.38452,42.30481Zm3.79468,2.42645a5.27227,5.27227,0,0,1,.90167,4.81458A4.86256,4.86256,0,0,0,57.31342,46.981a7.93138,7.93138,0,0,0-1.44531-.10846,3.40273,3.40273,0,0,0-.1181-0.69763V44.0307l0.04474-.00452a0.17467,0.17467,0,0,0,.13043-0.2616c-0.05072-.087-0.10736-0.18408-0.17517-0.28326V42.549A6.64015,6.64015,0,0,1,60.1792,44.73126Zm-3.27246-3.01221a6.69575,6.69575,0,0,0-.494-3.65826,5.76775,5.76775,0,0,1-.45233-3.19232A0.1752,0.1752,0,0,0,55.85,34.66992a0.16891,0.16891,0,0,0-.1-0.00024V25.65a3.11507,3.11507,0,0,0-.40271-1.512l15.98138,2.818a1.22331,1.22331,0,0,1,.89807.6944C67.816,29.04919,62.46405,32.864,56.90674,41.71906ZM41.80334,26.23938A3.1205,3.1205,0,0,0,40.76453,24.425h9.611A48.60893,48.60893,0,0,1,44.0072,34.76093c-0.18793.25134-.37775,0.50641-0.56714,0.76086ZM26.175,25.79651V25.65A1.2265,1.2265,0,0,1,27.4,24.425h6.553Zm27.65,34.09943a15.55392,15.55392,0,0,0-4.54248,2.37347,17.23493,17.23493,0,0,1,4.267-9.89844,0.17526,0.17526,0,0,0-.20953-0.272,10.86819,10.86819,0,0,0-4.15344,3.67865c-0.28015-.36688-0.56274-0.73364-0.8316-1.10138q0.10629-.13156.21259-0.26331c2.76068-3.41455,5.36823-6.6391,4.64258-10.56635a0.17861,0.17861,0,0,0-.1767-0.14288,0.17528,0.17528,0,0,0-.16882.15247c-0.28882,2.25586-2.5495,3.97644-5.1673,5.96912-0.049.03729-.09961,0.07648-0.1488,0.114a7.2879,7.2879,0,0,1-.86029-2.6911,8.06266,8.06266,0,0,0,1.101-4.08173,6.4721,6.4721,0,0,1,.38965-2.15057,0.17508,0.17508,0,0,0-.282-0.19958c-0.17236.17377-.33105,0.33679-0.48865,0.49915a1.22382,1.22382,0,0,0-1.29492-.41c2.39227-4.987,4.72406-10.46436,5.47284-16.48041H52.6a1.2265,1.2265,0,0,1,1.225,1.225v34.246ZM49.1759,69.575a3.1322,3.1322,0,0,0,.04224-1.28436L49.2016,68.197a20.03258,20.03258,0,0,1,4.62341-6.4444V68.35A1.22652,1.22652,0,0,1,52.6,69.575H49.1759ZM45.78357,48.81226a8.62,8.62,0,0,0,.72162,1.92816c-0.11139.08649-.22321,0.176-0.3349,0.26489Zm0.16931-.73376a4.69432,4.69432,0,0,0,.44183-0.44977,7.101,7.101,0,0,0,.87054,2.52722c-0.16058.12256-.3205,0.24445-0.48248,0.36926A8.88963,8.88963,0,0,1,45.95288,48.07849Zm-0.43066-5.9502q0.16974-.34845.33966-0.6994a0.87413,0.87413,0,0,1,1.295.14709c-0.46082.48138-.85382,0.91431-1.19244,1.31622A0.905,0.905,0,0,1,45.52222,42.1283Zm-0.67413,1.37848q0.214-.436.42957-0.8764a1.27626,1.27626,0,0,0,.45154.54535,10.72143,10.72143,0,0,0-.75433,1.05Zm2.77875-1.91541a12.57046,12.57046,0,0,0-.18658,1.547c-0.12628,1.56622-.30334,3.41577-1.82379,4.72614l-0.54669-3.10028A15.85192,15.85192,0,0,1,47.62683,41.59137Zm1.50122,14.69727-2.01886.04156-0.67023-3.801C47.27332,53.78943,48.16473,55.04132,49.12805,56.28864Zm-1.9574.39008,1.44153-.0296c-0.38879.62537-.74872,1.28217-1.10309,1.9491Zm-25.5072,18.603a2.1,2.1,0,0,1-2.43274-1.70343L11.81592,31.527a2.1,2.1,0,0,1,1.70343-2.43274l24.8172-4.376a2.10005,2.10005,0,0,1,2.43274,1.70343L48.18408,68.473a2.10005,2.10005,0,0,1-1.70343,2.43274Zm32.96033-4.53632A3.14728,3.14728,0,0,0,55.06451,70.29l8.36316,1.47467a1.577,1.577,0,0,0,1.82458-1.27753l7.41479-42.05133a1.577,1.577,0,0,0-1.27759-1.82458l-16.303-2.87463a3.155,3.155,0,0,0-.66724-0.65076l17.06146,3.00842A2.1,2.1,0,0,1,73.18408,28.527L65.76929,70.57825a2.1,2.1,0,0,1-2.43274,1.70343Zm31.49817-25.321A19.70112,19.70112,0,0,0,77.8916,48.4812a8.0719,8.0719,0,0,0-.829-3.76605A36.911,36.911,0,0,1,87.765,32.44208l1.79626,0.65381A1.22653,1.22653,0,0,1,90.2934,34.666L86.30847,45.61438a0.16433,0.16433,0,0,0,.00427-0.06671A0.1755,0.1755,0,0,0,86.12195,45.42438ZM71.76373,42.629a5.39116,5.39116,0,0,1,3.98657.994c1.46057,1.21466,1.79065,3.27283,1.79529,4.864a3.66822,3.66822,0,0,0-1.29633.02,5.09539,5.09539,0,0,1-2.28333-.10944,5.70359,5.70359,0,0,1-2.88849-1.71649c-0.00452-.0191-0.0141-0.03351-0.019-0.05231Zm5.61255,6.18842a26.34156,26.34156,0,0,0-3.0592,2.4519c0.25665-.80066.53662-1.57483,0.82928-2.33594a6.24572,6.24572,0,0,0,1.15173-.07983A3.59188,3.59188,0,0,1,77.37628,48.81744Zm-8.162,13.30719a20.88221,20.88221,0,0,1,3.27277-.327q-1.3093.92917-2.58038,1.95856a17.96162,17.96162,0,0,0-1.921.299l0.11121-.63043C68.46558,62.98669,68.82806,62.541,69.21429,62.12463Zm-1.2937,2.29974c0.49255-.10474.99042-0.19672,1.49268-0.25928-0.57928.48175-1.14771,0.98236-1.71008,1.49207ZM80.33252,62.0332L75.68915,74.79083A1.22655,1.22655,0,0,1,74.119,75.523L68.18256,73.3623A33.69713,33.69713,0,0,1,80.33252,62.0332ZM76.57928,61.923a29.45557,29.45557,0,0,1,5.36853-4.32776L80.83228,60.6601A14.98148,14.98148,0,0,0,76.57928,61.923Zm-3.58081-.47961a22.32352,22.32352,0,0,0-3.39233.26141,39.20869,39.20869,0,0,1,14.18073-9.16223l-1.45514,3.99786A41.173,41.173,0,0,0,72.99847,61.44336Zm5.04034-8.954a22.31911,22.31911,0,0,1,8.18188-6.7337,0.16709,0.16709,0,0,0,.05823-0.06012L83.954,52.08325A11.81279,11.81279,0,0,0,78.03882,52.48938ZM74.84729,40.78754a18.973,18.973,0,0,0-1.66559-6.20032l1.03644-5.87793a3.13372,3.13372,0,0,0-.02539-1.207L86.66034,32.04A34.98694,34.98694,0,0,0,74.84729,40.78754ZM91.1156,34.96527L76.51135,75.09009a2.1,2.1,0,0,1-2.69159,1.25513l-8.89032-3.23584a3.15869,3.15869,0,0,0,.60535-0.33832l8.46454,3.08081a1.57691,1.57691,0,0,0,2.01868-.94128L90.62225,34.78571A1.577,1.577,0,0,0,89.681,32.767L74.06116,27.08185a3.15064,3.15064,0,0,0-.34-0.6825l16.13934,5.87427A2.1,2.1,0,0,1,91.1156,34.96527Z"></path><path d="M46.38947,70.38873a1.577,1.577,0,0,0,1.27759-1.82458L40.25226,26.51288a1.57694,1.57694,0,0,0-1.82458-1.27759L13.61053,29.61121a1.577,1.577,0,0,0-1.27759,1.82458l7.41479,42.05133a1.577,1.577,0,0,0,1.82458,1.27753ZM45.331,65.52551l-0.10815.019a8.89281,8.89281,0,0,1,.25494-1.28534l0.80634-.14221A6.21982,6.21982,0,0,0,45.331,65.52551Zm-1.77533-1.28278-4.00073.70544,1.78424-1.89172,3.06885-.54114A19.08249,19.08249,0,0,0,43.55566,64.24274Zm-0.14813.38153c-0.17633.43707-.33722,0.8783-0.47791,1.32465l-3.10718.54791-0.15131-.85834a0.863,0.863,0,0,0-.14392-0.33008Zm-3.52429,2.21722,2.93689-.51788c-0.08612.29572-.17456,0.59082-0.2453,0.89081l-2.54663.449Zm0.20569,1.16669,2.412-.42529c-0.06238.29144-.12781,0.58209-0.176,0.87787l-2.09113.36871Zm0.20563,1.166,1.97925-.349c-0.04065.28552-.0705,0.57452-0.09814,0.8642l-1.73627.30615Zm6.4057,0.73389c-0.00763-.22327-0.00671-0.444.00433-0.66187l0.59534-.105A1.22568,1.22568,0,0,1,46.70026,69.908Zm0.38947-2.60248,0.05389,0.30554-0.167.02942C47.01166,67.526,47.0484,67.41382,47.08972,67.30554Zm0.11462,0.65021,0.118,0.66919a1.19946,1.19946,0,0,1,.01147.15485l-0.60187.10614a6.7611,6.7611,0,0,1,.14069-0.87164Zm-1.61108-4.07233a7.64666,7.64666,0,0,1,.63855-1.44318l0.22754,1.29047Zm-0.94958-1.765-2.90247.51178,0.6369-.67529a0.1746,0.1746,0,0,0-.0708-0.28528L38.697,60.43372q-0.02975-.10126-0.06012-0.20624l1.96576-.34662a11.76564,11.76564,0,0,0,1.17279.74835,0.17151,0.17151,0,0,0,.20935-0.0293,0.17513,0.17513,0,0,0,.02826-0.20978c-0.12378-.21851-0.2359-0.45435-0.343-0.69751l3.95435-.69727,0.22589,1.28107A21.55687,21.55687,0,0,0,44.64368,62.11841ZM37.82312,56.953a10.75362,10.75362,0,0,0,2.40472,2.63855l-1.688.29761C38.27991,58.97192,38.00262,57.90289,37.82312,56.953ZM45.5636,58.6507l-4.03235.711a27.60186,27.60186,0,0,1-1.15387-4.29523c-0.68457-3.21118-1.33148-6.24432-3.70972-5.95966a2.08794,2.08794,0,0,0-1.54742.91425c-1.18689,1.74615-.44073,5.70428.62354,9.83588l-0.55194.59827a51.62788,51.62788,0,0,1-1.6767-12.0097,8.55932,8.55932,0,0,0,3.173-1.46637,0.1745,0.1745,0,0,0-.08075-0.31824c-1.37384-.13953-2.10608-1.2605-2.85229-2.48083,0.84717-6.64514,3.76318-10.7937,6.746-14.24048Zm-22.59326-10.676q-0.25873-.39944-0.52045-0.78485a6.93515,6.93515,0,0,1,.51587-0.51239A8.197,8.197,0,0,0,22.97034,47.97473Zm0.91254,11.8924a45.85586,45.85586,0,0,0-6.93073-8.43146,8.93815,8.93815,0,0,0,3.24738-1.80353A101.64459,101.64459,0,0,1,23.88287,59.86713ZM23.42688,48.776a9.42126,9.42126,0,0,1,.24841-4.16766,6.74428,6.74428,0,0,0,.231-3.01025,8.06764,8.06764,0,0,1,1.48663,1.92749c-0.18463.34241-.35565,0.68811-0.52075,1.023a12.4885,12.4885,0,0,1-.93628,1.68738,0.17493,0.17493,0,0,0,.11438.27484,4.56053,4.56053,0,0,0,1.45148-.02344,2.81228,2.81228,0,0,0,1.1651-.447,0.17455,0.17455,0,0,0,.07025-0.15259c-0.00708-.10211-0.00507-0.2179-0.00519-0.33063a3.13138,3.13138,0,0,0,.556.4917c1.96161,1.311,1.47369,2.37994.799,3.86017a6.56272,6.56272,0,0,0-.81238,3.44287,0.59336,0.59336,0,0,0-.32281-0.04346,0.55325,0.55325,0,0,0-.1156.04218,2.67821,2.67821,0,0,0-1.63336-2.09937A2.95858,2.95858,0,0,1,23.42688,48.776Zm-0.3006-3.28607a6.26087,6.26087,0,0,1-.73157-0.26514,2.10141,2.10141,0,0,1-.2948-0.76624,1.34579,1.34579,0,0,1,.68707-1.64618,0.891,0.891,0,0,1,.809.40472c-0.05811.42572-.15637,0.85706-0.26154,1.3125C23.26343,44.8374,23.19043,45.15649,23.12628,45.48993ZM27.394,41.51758a9.10287,9.10287,0,0,0-1.01184,4.294,3.58292,3.58292,0,0,1-1.9978.38556,15.70177,15.70177,0,0,0,.80133-1.4942A8.74061,8.74061,0,0,1,27.394,41.51758Zm3.90649,19.342a1.26395,1.26395,0,0,1-1.54657-.65747A1.26348,1.26348,0,0,1,30.98248,59.056a1.26376,1.26376,0,0,1,1.54681.65668A1.26414,1.26414,0,0,1,31.30054,60.85956Zm-1.5188,1.51563q-0.10217-.27283-0.20276-0.5506l0.10248-.01807ZM30.139,59.00513a1.28455,1.28455,0,0,0-.72968,1.25775l0.21143,1.199-0.16284.02869c-0.5343-1.50244-1.04126-3.12671-1.57361-5.02106a2.00763,2.00763,0,0,0,.29175-1.64777,2.47317,2.47317,0,0,0-.51691-1.18292,5.94489,5.94489,0,0,1,.746-3.58453c0.06476-.142.12769-0.28174,0.1886-0.42041C29.19275,52.66437,29.709,55.84979,30.139,59.00513ZM26.663,55.0885a1.26625,1.26625,0,0,1,.34943-1.4353,1.8403,1.8403,0,0,1,.47,2.66522A1.26671,1.26671,0,0,1,26.663,55.0885Zm3.5661-7.93671a3.43571,3.43571,0,0,0-2.07812-.8761,5.65585,5.65585,0,0,0-.66864-0.51788,3.14706,3.14706,0,0,1-.72845-0.718,9.34441,9.34441,0,0,1,.6098-2.59589,2.76739,2.76739,0,0,1,2.631-1.117c1.71747,0.17609,2.55872,1.5556,3.37219,2.89,0.71191,1.16766,1.44574,2.371,2.76141,2.71307C32.86115,49.01929,31.465,48.02991,30.22906,47.15179ZM26.53168,53.61a1.43584,1.43584,0,0,0-.21576.5387q-0.60278-1.338-1.25208-2.57422A2.34894,2.34894,0,0,1,26.53168,53.61Zm0.9599,3.053c0.01721-.0014.03436,0.00305,0.05157,0,0.01086-.00189.02-0.00861,0.03064-0.01117a66.44932,66.44932,0,0,0,2.51361,7.45667l0.243,1.37811-1.05432-.40179A57.18283,57.18283,0,0,1,27.49158,56.66309Zm2.3927,4.27783a2.18242,2.18242,0,0,0,2.77527-.48944l0.40686,2.30743-2.40247,2.60394Zm4.30884-34.60358L38.48846,25.58a1.22653,1.22653,0,0,1,1.41913.99371L40.342,29.03735a1.25539,1.25539,0,0,1-.9707-0.413,0.17426,0.17426,0,0,0-.14056-0.05713l-0.01978.00208a0.1746,0.1746,0,0,0-.11261.0719,1.77074,1.77074,0,0,1-3.06866-1.73358,0.17508,0.17508,0,0,0-.04065-0.199,0.17156,0.17156,0,0,0-.20142-0.02631A1.23375,1.23375,0,0,1,34.19312,26.33734ZM21.7735,28.52728a1.13668,1.13668,0,0,1-2.03015.3642l-0.00671-.00507ZM20.93182,29.703a1.49031,1.49031,0,0,0,1.20935-1.24054l2.51807-.444c0.00311,0.01428.01172,0.02606,0.01428,0.04053a0.98716,0.98716,0,0,1-.33392.92114,1.68155,1.68155,0,0,0-.63092-0.02148,1.71611,1.71611,0,0,0-1.33453,1.17963,3.84355,3.84355,0,0,1-4.61938.4646,1.72085,1.72085,0,0,0,.58105.00775,1.74386,1.74386,0,0,0,1.37488-1.23926A1.473,1.473,0,0,0,20.93182,29.703Zm6.84991-.084a2.05235,2.05235,0,0,0-2.37445.04456,1.68008,1.68008,0,0,0-.1214-0.12946,1.9009,1.9009,0,0,1,2.16583-.71765,0.17535,0.17535,0,0,0,.19385-0.062,1.96158,1.96158,0,0,1,2.60321-.45972,0.17521,0.17521,0,0,0,.25995-0.08472,1.3506,1.3506,0,0,1,2.42462-.23035,0.17363,0.17363,0,0,0,.113.08,0.178,0.178,0,0,0,.13617-0.02679,1.19695,1.19695,0,1,1,1.14557,2.08643,1.87265,1.87265,0,0,0-1.04089-.491,1.77425,1.77425,0,0,0-2.03607-1.3548,1.74,1.74,0,0,0-1.02417.58667c-0.02844-.01605-0.0592-0.02588-0.08832-0.04022-0.03656-.018-0.073-0.03491-0.11078-0.05035a1.72463,1.72463,0,0,0-.20135-0.06744c-0.03644-.01007-0.0722-0.02081-0.10937-0.0285a1.7389,1.7389,0,0,0-.22791-0.02911c-0.03369-.0025-0.06641-0.00781-0.10046-0.00836a1.78259,1.78259,0,0,0-.335.02478A1.76406,1.76406,0,0,0,27.78174,29.619Zm-2.446.48126a0.174,0.174,0,0,0,.14807-0.04413,1.67939,1.67939,0,0,1,.853-0.42743,1.66119,1.66119,0,0,1,1.40118.402,0.16755,0.16755,0,0,0,.16119.03821,0.17476,0.17476,0,0,0,.121-0.113,1.40883,1.40883,0,0,1,1.3772-.97119c0.02838,0.00067.05591,0.00757,0.08411,0.00995a1.41285,1.41285,0,0,1,.19171.02448c0.03174,0.00714.06177,0.02075,0.093,0.03a1.44294,1.44294,0,0,1,.16754.05615c0.03674,0.0163.07068,0.03949,0.10626,0.059a1.41647,1.41647,0,0,1-.47406,2.64941,0.98577,0.98577,0,0,1-1.28485-.55713,0.663,0.663,0,0,1,.40308-0.73749,0.58986,0.58986,0,0,1,.72583.158,0.17487,0.17487,0,1,0,.2785-0.21155,0.93879,0.93879,0,0,0-1.14459-.2674,1.01639,1.01639,0,0,0-.60748,1.1192,1.29148,1.29148,0,0,0,1.69031.841,1.76211,1.76211,0,0,0,.888-3.08588,1.38933,1.38933,0,0,1,.79718-0.45428,1.42245,1.42245,0,0,1,1.64655,1.1535l0.00378,0.0451a0.17423,0.17423,0,0,0,.16309.14758,1.529,1.529,0,1,1-.92212,2.8031,0.16654,0.16654,0,0,0-.14319-0.02264,0.17514,0.17514,0,0,0-.111.09314,1.959,1.959,0,0,1-3.563-.03741,0.17373,0.17373,0,0,0-.15979-0.103,0.15214,0.15214,0,0,0-.03009.0025,0.17543,0.17543,0,0,0-.12927.10126,1.70627,1.70627,0,0,1-3.23969-.39636,1.72746,1.72746,0,0,1-.02484-0.33575,0.17517,0.17517,0,0,0-.07776-0.14941,0.17337,0.17337,0,0,0-.16748-0.01489,1.36968,1.36968,0,1,1,.65308-1.89429A0.17549,0.17549,0,0,0,25.33575,30.10028Zm-5.893-1.162a0.161,0.161,0,0,0-.01678.04254,1.39444,1.39444,0,0,1-2.515.73779,0.17363,0.17363,0,0,0-.15631-0.06964l-0.01428.00183a0.1757,0.1757,0,0,0-.12689.09528,1.01582,1.01582,0,0,1-.74286.56409,1.02616,1.02616,0,0,1-1.09106-.54962Zm-5.77142,1.0177,0.749-.13208a1.37261,1.37261,0,0,0,2.37451.29486,1.7432,1.7432,0,0,0,.63849.40375l-0.01062.00409a3.85425,3.85425,0,0,1-4.43146-.19574A1.21275,1.21275,0,0,1,13.67133,29.95593Zm2.3988,20.65881L12.67767,31.375a1.21389,1.21389,0,0,1,.10858-0.74774,4.22593,4.22593,0,0,0,4.72919.2536,4.21205,4.21205,0,0,0,4.77576-.22034,1.69657,1.69657,0,0,0,2.01514,1.68774,1.41047,1.41047,0,0,0,.15533-0.03644c0.00513,0.05255.012,0.10339,0.02087,0.15387a2.0562,2.0562,0,0,0,3.743.77271,2.30722,2.30722,0,0,0,3.95087-.0816,1.87679,1.87679,0,0,0,2.387-2.76685,1.54493,1.54493,0,0,0-.96753-2.90051,1.50758,1.50758,0,0,0-.4624.16278,1.69955,1.69955,0,0,0-2.86829.24542,2.315,2.315,0,0,0-2.82373.55133,2.23008,2.23008,0,0,0-.97455-0.04889,2.26924,2.26924,0,0,0-1.42822.88739,1.709,1.709,0,0,0-.32452-0.19269,1.33237,1.33237,0,0,0,.304-1.09662c-0.00256-.01447-0.01135-0.02618-0.0144-0.04047L33.814,26.40424a1.584,1.584,0,0,0,1.77.73395,2.121,2.121,0,0,0,3.675,1.86548,1.59749,1.59749,0,0,0,1.14423.38141L40.42145,29.488c-4.53131,1.26013-8.32416,5.77917-9.99591,11.568a3.5322,3.5322,0,0,0-.395-0.07684,3.46866,3.46866,0,0,0-.9939.04187,14.36347,14.36347,0,0,0-5.47272-7.63184,0.17507,0.17507,0,0,0-.24335.24353,29.48212,29.48212,0,0,1,3.37372,8.0484,7.21247,7.21247,0,0,0-1.06366,1.4259c-1.63049-5.313-4.18317-8.92084-7.783-10.99982a0.17493,0.17493,0,0,0-.22406.26093,40.55752,40.55752,0,0,1,5.788,10.23633,1.15,1.15,0,0,0-.28528-0.113,21.41818,21.41818,0,0,0-3.32959-4.57019,17.00722,17.00722,0,0,1-1.9505-2.45624,0.17242,0.17242,0,0,0-.19739-0.07629,0.17558,0.17558,0,0,0-.12616.1701c0.02264,2.169,1.3468,5.60669,3.38214,8.9021-0.30615-.16968-0.60858-0.33533-0.908-0.48224a21.44706,21.44706,0,0,0-5.48364-4.7392,0.175,0.175,0,0,0-.22119.26324,34.61607,34.61607,0,0,1,2.93195,4.21967c-0.06628.03357-.13263,0.05475-0.19885,0.09625-1.14221.71649-.923,2.01123-0.69049,3.38281a6.33265,6.33265,0,0,1-.09393,3.56708C16.184,50.71667,16.12683,50.6662,16.07013,50.61475Zm0.60944-3.472c-0.23053-1.36084-.41248-2.43591.53131-3.02783a1.89744,1.89744,0,0,1,.68542-0.268,4.78045,4.78045,0,0,1,2.88593.94537,10.97436,10.97436,0,0,0,2.285,1.03577c-0.01947.11792-.03583,0.23883-0.0517,0.36084a9.562,9.562,0,0,0-1.46674,1.50787,9.284,9.284,0,0,1-5.138,3.545A6.095,6.095,0,0,0,16.67957,47.1427ZM16.54572,53.312a14.22546,14.22546,0,0,1,1.76971,2.35022,11.12762,11.12762,0,0,0-1.52966-.98889Zm0.58386,3.3111a16.0137,16.0137,0,0,1,3.85968,5.30365l-3.13519-1.19489Zm0.79529,4.51038,12.312,4.69238-1.60956,1.74457-2.5545-.96844-0.03583-.20312c-0.14056-.79706-1.32312-1.23273-2.69244-0.99127-0.09033.01593-.17365,0.04059-0.26025,0.06134l-4.70978-1.78558Zm8.693,8.56006-0.47437-2.69037,2.22784,0.84467L26.654,69.70917Zm-0.9256-3.23389c0.10291,0.58368-.77039,1.24646-1.9071,1.4469-1.13641.20038-2.18372-.12378-2.28668-0.7074s0.77045-1.24652,1.9068-1.44684C24.542,65.55182,25.58936,65.87592,25.69226,66.45959Zm-7.24707-2.37512,4.09546,1.55273a1.7344,1.7344,0,0,0-1.38684,1.62262l0.01184,0.0672-2.32678-1.00989Zm0.51453,2.91809,0.41132-.07251,1.86755,0.81049,0.07477,0.42407-2.08392.36749Zm0.33051,1.87421,2.08392-.36743,0.2121,1.203-2.08392.36743Zm0.41785,2.36969-0.145-.822L21.647,70.057l0.145,0.822Zm0.06079,0.34467,2.08386-.36743L21.99756,72.045l-2.08392.36743Zm0.36578,1.98462a1.212,1.212,0,0,1-.04224-0.14941l-0.118-.66919,2.08392-.36743L22.20319,73.211ZM21.51154,74.42a1.22464,1.22464,0,0,1-1.2215-.51624l1.97388-.34808L22.389,74.26526Zm0.11523-6.49335a3.07908,3.07908,0,0,0,2.21912.32452,3.08022,3.08022,0,0,0,1.97467-1.064l0.50708,2.87579-3.63037,3.93481ZM23.03162,74.152L36.15112,59.93207l2.71411,0.929L26.94653,73.46167Zm4.49377-.79242L39.22961,60.98578l2.70752,0.92682L39.0965,64.92432a3.23491,3.23491,0,0,0-2.0686-.23029c-1.34711.23755-2.296,1.02472-2.16077,1.7915L35.30127,68.948l-3.43982,3.647Zm7.6864-6.93481c-0.09784-.55469.76172-1.18939,1.87689-1.386s2.14,0.10577,2.23773.66046-0.76172,1.18945-1.87689,1.386S35.30957,66.97949,35.21179,66.42474Zm0.218,3.25183-0.40137.07074,0.34869-.36969Zm0.20563,1.166-1.96716.34686,0.95807-1.01575,0.86426-.1524Zm-3.197,1.65076,0.82776-.87756,2.43-.42847,0.12512,0.70953ZM36.166,71.836l-0.82971-4.70526a3.58222,3.58222,0,0,0,4.11469-.72552l0.82965,4.70526Zm4.45929-.78625-0.12512-.70959,1.63434-.28815c-0.01849.24268-.0202,0.49109-0.02972,0.73682Z"></path></svg>
